<svg width="2048" height="2048" xmlns="http://www.w3.org/2000/svg"><path d="M602.513022 0h842.973958c209.5069 0 285.47917 21.8140186 362.07176 62.7761854 76.59259 40.9621666 136.70291 101.0724816 177.66507 177.6650746C2026.18598 317.033852 2048 393.006118 2048 602.513022v842.973958c0 209.5069-21.81402 285.47917-62.77619 362.07176-40.96216 76.59259-101.07248 136.70291-177.66507 177.66507C1730.96615 2026.18598 1654.99388 2048 1445.48698 2048H602.513022c-209.506904 0-285.47917-21.81402-362.071762-62.77619-76.592593-40.96216-136.702908-101.07248-177.6650746-177.66507C21.8140186 1730.96615 0 1654.99388 0 1445.48698V602.513022c0-209.506904 21.8140186-285.47917 62.7761854-362.071762C103.738352 163.848667 163.848667 103.738352 240.44126 62.7761854 317.033852 21.8140186 393.006118 0 602.513022 0Z" fill="#010F3C"/><path fill="none" stroke="#fff" stroke-width="197.416" d="M1386.499 1001.576 649.688 656.805l107.844-422.34s399.68 14.025 446.582 119.666c140.706 316.92-532.36 1039.45-358.985 1339.742 57.788 100.098 446.579 119.662 446.579 119.662l106.604-419.213-747.388-341.134"/></svg>